<svg width="21" height="21" viewBox="0 0 21 21" fill="none" xmlns="http://www.w3.org/2000/svg">
<path d="M14.2215 5.91675C13.1833 5.32435 11.694 4.66675 10.4715 4.66675C7.99283 4.66675 5.7931 6.31746 4.27696 7.86266C3.47688 8.67808 3.07684 9.08578 2.92812 10.0364C2.89334 10.2588 2.89334 10.7414 2.92812 10.9638C3.07684 11.9144 3.47688 12.3221 4.27696 13.1375C5.7931 14.6827 7.99284 16.3334 10.4715 16.3334C13.0244 16.3334 15.2814 14.5823 16.8005 12.999C17.4493 12.3227 17.7737 11.9845 17.9612 11.1852C18.0388 10.8546 18.0388 10.1452 17.9612 9.81459C17.7736 9.01535 17.4489 8.67693 16.7994 8.00008V8.00008M12.9715 10.5001C12.9715 11.8808 11.8522 13.0001 10.4715 13.0001C9.09081 13.0001 7.97152 11.8808 7.97152 10.5001C7.97152 9.11937 9.09081 8.00008 10.4715 8.00008C11.8522 8.00008 12.9715 9.11937 12.9715 10.5001Z" stroke="#292929" stroke-width="1.5" stroke-linecap="round" stroke-linejoin="round"/>
</svg>
