<svg width="21" height="21" viewBox="0 0 21 21" fill="none" xmlns="http://www.w3.org/2000/svg">
<path d="M5.47168 15.603V16.2361C5.47168 16.7538 5.05195 17.1736 4.53418 17.1736V17.1736C4.01641 17.1736 3.59668 16.7538 3.59668 16.2361V8.93936C3.59668 8.4216 4.01641 8.00186 4.53418 8.00186V8.00186C5.05195 8.00186 5.47168 8.4216 5.47168 8.93936V9.68412M5.47168 15.603L5.88772 15.9951C6.44184 16.5172 6.7189 16.7783 7.06055 16.964C7.16885 17.0229 7.29627 17.0819 7.41125 17.1263C7.77393 17.2666 8.13042 17.3064 8.84341 17.386C9.66464 17.4777 10.6178 17.5673 11.305 17.5807C12.2315 17.5988 13.4212 17.49 14.3563 17.3803C15.3025 17.2694 16.0845 16.6128 16.399 15.7136V15.7136M5.47168 15.603V9.68412M5.47168 9.68412C7.00328 9.15435 7.89744 8.4307 9.11477 7.18569C9.93385 6.34798 10.4958 4.76156 10.8286 3.99006C10.9986 3.59623 11.3989 3.41602 11.8198 3.41602C12.4209 3.41602 12.991 3.7568 13.1772 4.34134C13.4934 5.33405 13.4942 6.28006 13.1795 7.38002V7.38002C13.0692 7.93125 13.4676 8.4542 14.0283 8.49427L15.6819 8.61245C17.2555 8.72491 18.2921 10.302 17.7712 11.7912L17.4943 12.5827" stroke="#292556" stroke-width="1.5" stroke-linecap="round" stroke-linejoin="round"/>
</svg>
