<svg width="21" height="21" viewBox="0 0 21 21" fill="none" xmlns="http://www.w3.org/2000/svg">
<path d="M9.63818 8C9.63818 8.69036 9.07854 9.25 8.38818 9.25C7.69783 9.25 7.13818 8.69036 7.13818 8C7.13818 7.30964 7.69783 6.75 8.38818 6.75C9.07854 6.75 9.63818 7.30964 9.63818 8Z" fill="#292556"/>
<path d="M13.8049 8C13.8049 8.69036 13.2452 9.25 12.5549 9.25C11.8645 9.25 11.3049 8.69036 11.3049 8C11.3049 7.30964 11.8645 6.75 12.5549 6.75C13.2452 6.75 13.8049 7.30964 13.8049 8Z" fill="#292556"/>
<path d="M6.65332 11.75C7.29628 13.2216 8.76468 14.25 10.4733 14.25C12.1819 14.25 13.6503 13.2216 14.2932 11.75M16.7087 6.33333C17.5065 7.52508 17.9717 8.95821 17.9717 10.5C17.9717 14.6421 14.6138 18 10.4717 18C6.32954 18 2.97168 14.6421 2.97168 10.5C2.97168 6.35786 6.32954 3 10.4717 3C11.8378 3 13.1185 3.36523 14.2217 4.00337" stroke="#292556" stroke-width="1.5" stroke-linecap="round" stroke-linejoin="round"/>
</svg>
