<svg width="21" height="21" viewBox="0 0 21 21" fill="none" xmlns="http://www.w3.org/2000/svg">
<path d="M5.47168 5.39575V4.76272C5.47168 4.24495 5.05195 3.82522 4.53418 3.82522V3.82522C4.01641 3.82522 3.59668 4.24495 3.59668 4.76272V12.0594C3.59668 12.5772 4.01641 12.9969 4.53418 12.9969V12.9969C5.05195 12.9969 5.47168 12.5772 5.47168 12.0594V11.3147M5.47168 5.39575L5.88772 5.00371C6.44184 4.48155 6.7189 4.22047 7.06055 4.03476C7.16885 3.97588 7.29627 3.91691 7.41125 3.87245C7.77393 3.73219 8.13042 3.69238 8.84341 3.61277C9.66464 3.52107 10.6178 3.43152 11.305 3.41808C12.2315 3.39997 13.4212 3.5088 14.3563 3.61847C15.3025 3.72943 16.0845 4.38597 16.399 5.28517V5.28517M5.47168 5.39575V11.3147M5.47168 11.3147C7.00328 11.8444 7.89744 12.5681 9.11477 13.8131C9.93385 14.6508 10.4958 16.2372 10.8286 17.0087C10.9986 17.4025 11.3989 17.5828 11.8198 17.5828C12.4209 17.5828 12.991 17.242 13.1772 16.6574C13.4934 15.6647 13.4942 14.7187 13.1795 13.6188V13.6188C13.0692 13.0675 13.4676 12.5446 14.0283 12.5045L15.6819 12.3863C17.2555 12.2739 18.2921 10.6968 17.7712 9.20761L17.4943 8.4161" stroke="#292929" stroke-width="1.5" stroke-linecap="round" stroke-linejoin="round"/>
</svg>
