<svg width="20" height="20" viewBox="0 0 20 20" fill="none" xmlns="http://www.w3.org/2000/svg">
<circle cx="10" cy="10" r="8.33333" stroke="#ff75ba" stroke-width="1.5" stroke-linecap="round" stroke-linejoin="round"/>
<path d="M6.25 6.875C6.25 6.70924 6.31585 6.55027 6.43306 6.43306C6.55027 6.31585 6.70924 6.25 6.875 6.25C7.04076 6.25 7.19973 6.31585 7.31694 6.43306C7.43415 6.55027 7.5 6.70924 7.5 6.875C7.5 7.04076 7.43415 7.19973 7.31694 7.31694C7.19973 7.43415 7.04076 7.5 6.875 7.5C6.70924 7.5 6.55027 7.43415 6.43306 7.31694C6.31585 7.19973 6.25 7.04076 6.25 6.875Z" fill="#ff75ba"/>
<path d="M12.5 6.875C12.5 6.70924 12.5658 6.55027 12.6831 6.43306C12.8003 6.31585 12.9592 6.25 13.125 6.25C13.2908 6.25 13.4497 6.31585 13.5669 6.43306C13.6842 6.55027 13.75 6.70924 13.75 6.875C13.75 7.04076 13.6842 7.19973 13.5669 7.31694C13.4497 7.43415 13.2908 7.5 13.125 7.5C12.9592 7.5 12.8003 7.43415 12.6831 7.31694C12.5658 7.19973 12.5 7.04076 12.5 6.875Z" fill="#ff75ba"/>
<path d="M6.66675 12.5C6.66675 12.5 8.33341 14.1667 10.0001 14.1667C11.6667 14.1667 13.3334 12.5 13.3334 12.5" stroke="#ff75ba" stroke-width="1.5" stroke-linecap="round" stroke-linejoin="round"/>
</svg>