<svg width="20" height="20" viewBox="0 0 20 20" fill="none" xmlns="http://www.w3.org/2000/svg">
<path d="M6.66675 8.33333V16.6667H3.33341C2.89139 16.6667 2.46746 16.4911 2.15491 16.1785C1.84235 15.866 1.66675 15.442 1.66675 15V10C1.66675 9.55797 1.84235 9.13405 2.15491 8.82149C2.46746 8.50893 2.89139 8.33333 3.33341 8.33333H6.66675ZM6.66675 8.33333L8.33341 3.33333C8.77544 3.33333 9.19936 3.50893 9.51192 3.82149C9.82448 4.13405 10.0001 4.55797 10.0001 5V7.5H15.8334C16.0544 7.49989 16.2726 7.54681 16.4742 7.63784C16.6758 7.72887 16.8563 7.86207 17.0034 8.02833C17.1506 8.19459 17.2612 8.39034 17.3284 8.60215C17.3956 8.81396 17.4179 9.03742 17.3939 9.25833L16.5606 16.0917C16.5199 16.4615 16.3477 16.8044 16.0751 17.0583C15.8025 17.3122 15.4477 17.4603 15.0751 17.475H10.0001C9.55806 17.475 9.13414 17.2994 8.82158 16.9868C8.50902 16.6743 8.33341 16.2503 8.33341 15.8083V8.33333H6.66675Z" stroke="#292929" stroke-width="1.5" stroke-linecap="round" stroke-linejoin="round"/>
</svg>