<svg width="20" height="20" viewBox="0 0 20 20" fill="none" xmlns="http://www.w3.org/2000/svg">
<path d="M13.3333 11.6667V3.33333H16.6666C17.1087 3.33333 17.5326 3.50893 17.8451 3.82149C18.1577 4.13405 18.3333 4.55797 18.3333 5V10C18.3333 10.442 18.1577 10.866 17.8451 11.1785C17.5326 11.4911 17.1087 11.6667 16.6666 11.6667H13.3333ZM13.3333 11.6667L11.6666 16.6667C11.2246 16.6667 10.8007 16.4911 10.4881 16.1785C10.1755 15.866 9.99992 15.442 9.99992 15V12.5H4.16659C3.94558 12.5001 3.72738 12.4532 3.52578 12.3622C3.32418 12.2711 3.14369 12.1379 2.99653 11.9717C2.84937 11.8054 2.73876 11.6097 2.67158 11.3979C2.6044 11.186 2.58208 10.9626 2.60609 10.7417L3.43942 3.90833C3.48014 3.53846 3.65232 3.19563 3.92492 2.94167C4.19752 2.68771 4.55234 2.53975 4.92492 2.525H9.99992C10.4419 2.525 10.8659 2.70059 11.1784 3.01315C11.491 3.32571 11.6666 3.74964 11.6666 4.19167V11.6667H13.3333Z" stroke="#292929" stroke-width="1.5" stroke-linecap="round" stroke-linejoin="round"/>
</svg>