<svg width="27" height="26" viewBox="0 0 27 26" fill="none" xmlns="http://www.w3.org/2000/svg">
<path d="M18.8883 4.89184C17.3391 3.85479 15.476 3.25 13.4717 3.25C8.0869 3.25 3.72168 7.61522 3.72168 13C3.72168 18.3848 8.0869 22.75 13.4717 22.75C18.8565 22.75 23.2217 18.3848 23.2217 13C23.2217 11.2241 22.7469 9.5591 21.9173 8.125M18.8883 13C18.8883 15.9915 16.4632 18.4167 13.4717 18.4167C10.4801 18.4167 8.05501 15.9915 8.05501 13C8.05501 10.0085 10.4801 7.58333 13.4717 7.58333C16.4632 7.58333 18.8883 10.0085 18.8883 13Z" stroke="#292929" stroke-width="1.5" stroke-linecap="round" stroke-linejoin="round"/>
<path d="M15.0967 13C15.0967 13.8975 14.3691 14.625 13.4717 14.625C12.5742 14.625 11.8467 13.8975 11.8467 13C11.8467 12.1025 12.5742 11.375 13.4717 11.375C14.3691 11.375 15.0967 12.1025 15.0967 13Z" fill="#292929"/>
</svg>
