<svg width="27" height="26" viewBox="0 0 27 26" fill="none" xmlns="http://www.w3.org/2000/svg">
<path d="M10.2217 5.41667V5.41667C8.82715 5.41667 8.12989 5.41667 7.55445 5.55482C5.72621 5.99374 4.29875 7.4212 3.85983 9.24944C3.72168 9.82488 3.72168 10.5221 3.72168 11.9167V14.0833C3.72168 17.5152 3.72168 19.2311 4.52833 20.4732C4.90995 21.0608 5.41083 21.5617 5.99848 21.9434C7.24061 22.75 8.95652 22.75 12.3883 22.75H16.7217C18.1162 22.75 18.8135 22.75 19.3889 22.6119C21.2172 22.1729 22.6446 20.7455 23.0835 18.9172C23.2217 18.3418 23.2217 17.6445 23.2217 16.25V16.25M10.2217 5.41667V7.04167M10.2217 5.41667V3.25M10.2217 5.41667H16.7217M16.7217 5.41667H16.83C18.1236 5.41667 18.7704 5.41667 19.306 5.53566C21.2014 5.95672 22.6816 7.43697 23.1027 9.33234C23.2217 9.86797 23.2217 10.5148 23.2217 11.8083V11.8083V11.9167M16.7217 5.41667V3.25M16.7217 5.41667V7.04167" stroke="#292929" stroke-width="1.5" stroke-linecap="round" stroke-linejoin="round"/>
</svg>
