<svg width="27" height="26" viewBox="0 0 27 26" fill="none" xmlns="http://www.w3.org/2000/svg">
<path d="M16.4573 6.36786L16.4401 6.31861V6.31861C15.946 4.90613 15.6989 4.19988 15.4545 3.88157C14.4538 2.57846 12.4896 2.57846 11.4889 3.88157C11.2444 4.19988 10.9974 4.90612 10.5032 6.31861L10.3583 6.73295C10.2272 7.10758 10.1617 7.29489 10.0782 7.45505C9.70673 8.16714 9.0158 8.65743 8.22099 8.77289C8.04223 8.79886 7.84379 8.79886 7.4469 8.79886H7.25088C5.97391 8.79886 5.33543 8.79886 5.01849 8.88349C3.27333 9.34951 2.58319 11.4556 3.71411 12.8641C3.9195 13.1199 4.43416 13.4978 5.46348 14.2535V14.2535C5.75946 14.4708 5.90745 14.5795 6.02705 14.6945C6.64625 15.2899 6.91635 16.1616 6.74233 17.0029C6.70872 17.1654 6.64693 17.342 6.52334 17.6953V17.6953C6.03667 19.0864 5.79333 19.782 5.77867 20.1562C5.71128 21.8757 7.36078 23.1476 9.00663 22.6452C9.36477 22.5358 9.96336 22.1319 11.1605 21.324L11.6346 21.0041C12.0561 20.7197 12.2668 20.5775 12.4811 20.4851C13.1133 20.2122 13.8301 20.2122 14.4623 20.4851C14.6766 20.5775 14.8873 20.7197 15.3087 21.0041L15.8048 21.3388C16.9842 22.1347 17.5739 22.5327 17.9262 22.6419C19.5787 23.1543 21.2396 21.8737 21.1642 20.1452C21.1482 19.7767 20.9084 19.0912 20.4287 17.7202V17.7202C20.3054 17.3676 20.2437 17.1913 20.2102 17.0297C20.0329 16.1754 20.3138 15.2906 20.9512 14.6949C21.0719 14.5822 21.221 14.4759 21.5192 14.2631L21.6833 14.1461C22.596 13.4951 23.0523 13.1696 23.2403 12.9576C24.4997 11.5375 23.7794 9.28715 21.9295 8.86229C21.6533 8.79886 21.0927 8.79886 19.9717 8.79886V8.79886" stroke="#292929" stroke-width="1.5" stroke-linecap="round" stroke-linejoin="round"/>
</svg>
