<svg width="27" height="26" viewBox="0 0 27 26" fill="none" xmlns="http://www.w3.org/2000/svg">
<path d="M18.3465 7.04175C16.9968 6.27163 15.0608 5.41675 13.4715 5.41675C9.84502 5.41675 6.67785 8.13481 4.71985 10.3164C3.91067 11.218 3.50608 11.6688 3.37435 12.5628C3.34155 12.7854 3.34155 13.2147 3.37435 13.4374C3.50608 14.3314 3.91067 14.7822 4.71985 15.6838C6.67785 17.8654 9.84503 20.5834 13.4715 20.5834C17.098 20.5834 20.2652 17.8654 22.2232 15.6838C23.0324 14.7822 23.437 14.3313 23.5687 13.4373C23.6015 13.2147 23.6015 12.7853 23.5687 12.5627C23.4369 11.6687 23.0322 11.2177 22.2226 10.3158C22.0563 10.1304 21.8811 9.94119 21.6978 9.75008M16.7215 13.0001C16.7215 14.795 15.2664 16.2501 13.4715 16.2501C11.6766 16.2501 10.2215 14.795 10.2215 13.0001C10.2215 11.2052 11.6766 9.75008 13.4715 9.75008C15.2664 9.75008 16.7215 11.2052 16.7215 13.0001Z" stroke="#292929" stroke-width="1.5" stroke-linecap="round" stroke-linejoin="round"/>
</svg>
