<svg width="150" height="84" viewBox="0 0 150 84" fill="none" xmlns="http://www.w3.org/2000/svg">
<path d="M137.566 0H12.4218C5.57765 0 0 5.59588 0 12.4082V56.5427C0 63.3794 5.60201 68.9509 12.4218 68.9509H23.4554L21.2146 83.2082C21.5799 83.0136 21.8965 82.673 22.1888 82.381C26.5243 77.9287 30.6406 73.2573 35.0004 68.9509H137.541C144.386 68.9509 149.963 63.355 149.963 56.5427V12.4082C149.963 5.57155 144.361 0 137.541 0H137.566Z" fill="#EBAD2C"/>
<path d="M19.1454 36.2759L18.4391 24.9625L21.4837 36.0326L25.6486 35.765C25.6486 35.765 25.5512 14.598 25.4781 11.9947L21.2645 12.0676L21.6542 23.2594L17.8789 12.4326L13.7383 12.6272L15.0535 36.3246H19.1454V36.2759Z" fill="#F4F4F4"/>
<path d="M30.9587 35.9839C34.2712 38.1493 37.949 33.7942 38.2169 24.8165C38.4849 15.8388 33.6379 8.24784 29.4973 13.3815C29.4973 13.3815 26.6232 16.6417 26.8181 23.1134C26.9886 28.685 27.7193 33.8429 30.9587 35.9839ZM30.2523 23.6243C30.228 21.2643 31.2997 19.5126 31.2997 19.5126C33.0533 17.3229 35.1237 20.5588 35.0262 24.3786C34.9044 28.1984 33.37 29.9015 31.9329 29.1472C30.4959 28.3687 30.3011 25.9843 30.2523 23.6243Z" fill="#F4F4F4"/>
<path d="M74.9954 36.4462L74.2647 23.5027L77.2118 36.1542L82.3754 35.9353C82.3754 35.9353 82.2049 14.233 82.2536 11.4594H77.8451C77.8451 11.4351 78.1617 22.0916 78.1617 22.0916L74.4595 11.7514L69.7344 11.6054L70.2702 36.6165L75.0197 36.4705L74.9954 36.4462Z" fill="#F4F4F4"/>
<path d="M50.7352 22.6755C50.7352 22.6755 54.2181 22.4322 54.2912 16.666C54.3643 10.8998 46.1561 10.0969 42.9654 11.4107L42.7949 35.9596C42.7949 35.9596 48.9815 37.2491 52.9273 33.3563C56.873 29.4635 55.3629 24.1353 50.7595 22.6511L50.7352 22.6755ZM47.0817 15.0359C47.0817 15.0359 49.907 15.7171 49.2738 17.6878C48.6405 19.6586 47.1791 19.6586 47.1791 19.6586L47.0817 15.0116V15.0359ZM46.9599 31.1909L47.3983 25.0841C47.3983 25.0841 50.4916 25.6924 50.1506 28.7336C49.907 30.8017 46.9842 31.1909 46.9842 31.1909H46.9599Z" fill="#F4F4F4"/>
<path d="M61.0394 29.3175H63.1341L63.7917 35.9596L68.6143 35.5946L65.4723 11.6297L58.2384 11.8487L56.2168 36.5435H60.5766L61.015 29.2932L61.0394 29.3175ZM62.6956 24.7435L61.3317 24.8165L61.8432 16.2767L62.6956 24.7435Z" fill="#F4F4F4"/>
<path d="M96.5502 36.3732L94.1876 11.9703L86.564 11.8L83.4707 36.6408L88.0497 36.8841L88.8048 29.5852L91.0212 29.7068L91.4597 36.4462L96.5502 36.3489V36.3732ZM89.2919 25.0841L90.1688 16.4714L90.729 25.0841H89.2919Z" fill="#F4F4F4"/>
<path d="M102.713 11.8973H97.9883C97.9883 11.873 98.2318 36.7625 98.2318 36.7625L102.981 36.4949L102.397 23.6243L105.417 35.6676L110.337 35.9109C110.337 35.9109 110.97 14.379 111.043 11.6054L106.099 11.5081L106.294 22.1159L102.713 11.8973Z" fill="#F4F4F4"/>
<path d="M114.696 12.092L111.627 35.911L116.06 36.2759L116.815 29.2689L118.958 29.4392L119.348 35.9353H124.244C124.244 35.9596 122.052 12.4326 122.052 12.4326L114.696 12.092ZM117.253 24.9382L118.13 16.6903L118.642 24.9868H117.253V24.9382Z" fill="#F4F4F4"/>
<path d="M131.696 21.24C129.236 19.4153 129.699 18.0285 130.941 17.5175C132.183 17.0066 133.937 19.1476 133.937 19.1476L136.105 13.8924C136.105 13.8924 131.721 11.2161 129.09 12.238C126.459 13.2598 122.441 18.3448 126.216 23.5757C129.991 28.8066 130.917 27.4928 130.99 29.9015C131.039 31.6775 128.14 31.4829 126.752 29.9015L124.974 35.0837C124.974 35.0837 128.53 37.6384 131.696 36.4462C134.862 35.254 135.715 33.6239 136.178 30.1448C136.762 25.741 134.181 23.0891 131.721 21.2643L131.696 21.24Z" fill="#F4F4F4"/>
<path d="M50.7108 41.3122C50.7108 41.3122 47.9828 44.4994 47.8854 48.9274C47.788 53.3311 48.1046 57.7835 51.4902 59.2676C54.8757 60.7518 58.7484 57.6375 59.3086 50.5089C59.8688 43.3802 55.1193 37.2734 50.7108 41.3122ZM56.0205 50.1196C55.7769 53.1608 54.145 54.4746 52.6836 53.8421C51.2466 53.2095 51.1005 51.3118 51.1492 49.4384C51.1979 47.565 52.367 46.2025 52.367 46.2025C54.2425 44.4751 56.2641 47.0784 56.0205 50.1196Z" fill="#F4F4F4"/>
<path d="M38.9956 59.8516L43.2337 59.5109L42.917 53.5988L46.5218 53.2338L46.5462 48.9031L42.6978 49.0734L42.5273 45.7645L47.1794 45.4969L47.4717 40.3876L38.8008 40.5093L38.9956 59.8516Z" fill="#F4F4F4"/>
<path d="M69.4418 50.8738C71.3417 47.7109 70.9763 45.0833 69.8072 43.0883C67.7612 39.6091 61.9887 40.0957 60.8927 40.6553L60.1133 59.6569L64.0103 59.5109L64.0834 54.0124C64.4487 53.9637 64.9115 53.8907 65.4474 53.7204L66.787 59.6326L70.611 59.7542L68.6381 51.92C68.9304 51.628 69.1983 51.2631 69.4418 50.8738ZM64.1321 49.7303L64.2052 44.2074C64.2052 44.2074 67.1767 44.1588 67.1036 46.5188C67.0305 48.8788 65.2769 49.5357 64.1321 49.7303Z" fill="#F4F4F4"/>
<path d="M75.1406 55.2045C74.1176 55.1802 73.2651 56.2021 73.2408 57.4916C73.2164 58.781 74.0202 59.8516 75.0432 59.8759C76.0661 59.9002 76.9186 58.8784 76.943 57.5889C76.9673 56.2994 76.1636 55.2289 75.1406 55.2045Z" fill="#F4F4F4"/>
<path d="M86.7585 45.7159L85.0779 40.3876H80.0848L79.5977 60.0949L83.787 60.2652L83.7383 47.6379L86.5393 53.2825L89.2428 48.3435L88.8288 60.3625L92.5797 60.6058L93.0425 40.0957L88.6339 39.974L86.7585 45.7159Z" fill="#F4F4F4"/>
<path d="M94.5039 60.4598L103.297 60.4841L103.077 56.1048L97.9869 55.9831L98.133 51.701L102.785 52.0903L102.858 47.9299L98.1574 47.6379L98.2061 44.3048L103.077 44.4994L103.345 40.6066L94.7475 40.4606L94.5039 60.4598Z" fill="#F4F4F4"/>
<path d="M107.755 40.7769L106.805 54.8153L110.288 55.1316L111.165 40.9229L107.755 40.7769Z" fill="#F4F4F4"/>
<path d="M110.506 58.6107C110.506 59.9002 109.654 60.9464 108.558 60.9707C107.462 60.9951 106.561 59.9489 106.561 58.6351C106.561 57.3456 107.437 56.2994 108.533 56.2994C109.629 56.2994 110.506 57.3456 110.531 58.6107H110.506Z" fill="#F4F4F4"/>
<path d="M5.70089 53.8907C5.70089 53.8907 4.99455 60.4111 9.76844 62.3575C14.5423 64.3039 25.6489 63.5983 25.6489 63.5983C25.6489 63.5983 15.2 62.4792 12.2041 61.4087C9.20824 60.3381 8.52625 60.0705 5.70089 53.8907Z" fill="#B07E48"/>
<path d="M144.29 53.8907C144.29 53.8907 144.996 60.4111 140.222 62.3575C135.448 64.3039 124.342 63.5983 124.342 63.5983C124.342 63.5983 134.791 62.4792 137.787 61.4087C140.782 60.3625 141.464 60.0705 144.29 53.8907Z" fill="#B07E48"/>
<path d="M5.70089 14.0383C5.70089 14.0383 4.99455 7.51794 9.76844 5.57154C14.5423 3.62515 25.6489 4.33072 25.6489 4.33072C25.6489 4.33072 15.2 5.44989 12.2041 6.52041C9.20824 7.59093 8.52625 7.85855 5.70089 14.0383Z" fill="#B07E48"/>
<path d="M144.29 14.0383C144.29 14.0383 144.996 7.51794 140.222 5.57154C135.448 3.62515 124.342 4.33072 124.342 4.33072C124.342 4.33072 134.791 5.44989 137.787 6.52041C140.782 7.59093 141.464 7.85855 144.29 14.0383Z" fill="#B07E48"/>
</svg>
